<svg width="108" height="28" viewBox="0 0 108 28" fill="none" xmlns="http://www.w3.org/2000/svg">
<path d="M35.7969 13.9961C35.7969 15.9362 35.4909 17.7591 34.8789 19.4648C34.2669 21.1706 33.3945 22.6549 32.2617 23.918C31.1419 25.181 29.7943 26.1771 28.2188 26.9062C26.6432 27.6354 24.8919 28 22.9648 28H13.6484C11.7083 28 9.94401 27.6354 8.35547 26.9062C6.76693 26.1771 5.40625 25.181 4.27344 23.918C3.15365 22.6549 2.28776 21.1706 1.67578 19.4648C1.0638 17.7591 0.757812 15.9362 0.757812 13.9961C0.757812 12.069 1.0638 10.2591 1.67578 8.56641C2.28776 6.86068 3.15365 5.3763 4.27344 4.11328C5.40625 2.83724 6.76693 1.83464 8.35547 1.10547C9.94401 0.363281 11.7083 -0.0078125 13.6484 -0.0078125H22.9648C24.8919 -0.0078125 26.6432 0.363281 28.2188 1.10547C29.7943 1.83464 31.1419 2.83724 32.2617 4.11328C33.3945 5.3763 34.2669 6.86068 34.8789 8.56641C35.4909 10.2591 35.7969 12.069 35.7969 13.9961ZM31.793 13.9961C31.793 12.6159 31.5911 11.3203 31.1875 10.1094C30.7839 8.89844 30.1979 7.84375 29.4297 6.94531C28.6745 6.03385 27.75 5.31771 26.6562 4.79688C25.5755 4.26302 24.3451 3.99609 22.9648 3.99609H13.6484C12.2682 3.99609 11.0247 4.26302 9.91797 4.79688C8.82422 5.31771 7.89323 6.03385 7.125 6.94531C6.36979 7.84375 5.78385 8.89844 5.36719 10.1094C4.96354 11.3203 4.76172 12.6159 4.76172 13.9961C4.76172 15.3763 4.96354 16.6784 5.36719 17.9023C5.78385 19.1133 6.36979 20.1745 7.125 21.0859C7.89323 21.9844 8.82422 22.694 9.91797 23.2148C11.0247 23.7357 12.2682 23.9961 13.6484 23.9961H22.9648C24.3451 23.9961 25.5755 23.7357 26.6562 23.2148C27.75 22.694 28.6745 21.9844 29.4297 21.0859C30.1979 20.1745 30.7839 19.1133 31.1875 17.9023C31.5911 16.6784 31.793 15.3763 31.793 13.9961ZM73.8828 19.9922C73.8828 21.112 73.668 22.1602 73.2383 23.1367C72.8216 24.1003 72.2487 24.9466 71.5195 25.6758C70.8034 26.3919 69.957 26.9583 68.9805 27.375C68.0039 27.7917 66.9688 28 65.875 28H46.9102V23.9961H65.875C66.4219 23.9961 66.9362 23.8919 67.418 23.6836C67.9128 23.4753 68.3424 23.1888 68.707 22.8242C69.0716 22.4596 69.3581 22.0365 69.5664 21.5547C69.7747 21.0599 69.8789 20.5391 69.8789 19.9922C69.8789 19.4453 69.7747 18.931 69.5664 18.4492C69.3581 17.9674 69.0716 17.5443 68.707 17.1797C68.3424 16.8151 67.9128 16.5286 67.418 16.3203C66.9362 16.112 66.4219 16.0078 65.875 16.0078H46.9102V12.0039H61.8711C62.418 12.0039 62.9323 11.8997 63.4141 11.6914C63.9089 11.4831 64.3385 11.1966 64.7031 10.832C65.0677 10.4674 65.3542 10.0443 65.5625 9.5625C65.7708 9.06771 65.875 8.54688 65.875 8C65.875 7.45312 65.7708 6.9388 65.5625 6.45703C65.3542 5.96224 65.0677 5.53255 64.7031 5.16797C64.3385 4.80339 63.9089 4.51693 63.4141 4.30859C62.9323 4.10026 62.418 3.99609 61.8711 3.99609H44.918V28H40.9141V-0.0078125H61.8711C62.9648 -0.0078125 64 0.207031 64.9766 0.636719C65.9531 1.05339 66.7995 1.6263 67.5156 2.35547C68.2448 3.07161 68.8177 3.91797 69.2344 4.89453C69.6641 5.87109 69.8789 6.90625 69.8789 8C69.8789 8.84635 69.7552 9.64714 69.5078 10.4023C69.2604 11.1445 68.9284 11.8346 68.5117 12.4727C69.293 12.7461 70.0091 13.1302 70.6602 13.625C71.3242 14.1198 71.8906 14.6927 72.3594 15.3438C72.8411 15.9948 73.2122 16.7174 73.4727 17.5117C73.7461 18.293 73.8828 19.1198 73.8828 19.9922ZM107.887 28H89.8594C87.9193 28 86.1549 27.6354 84.5664 26.9062C82.9779 26.1771 81.6172 25.181 80.4844 23.918C79.3646 22.6549 78.4987 21.1706 77.8867 19.4648C77.2747 17.7591 76.9688 15.9362 76.9688 13.9961C76.9688 12.069 77.2747 10.2591 77.8867 8.56641C78.4987 6.86068 79.3646 5.3763 80.4844 4.11328C81.6172 2.83724 82.9779 1.83464 84.5664 1.10547C86.1549 0.363281 87.9193 -0.0078125 89.8594 -0.0078125H107.887V3.99609H89.8594C88.4792 3.99609 87.2357 4.26302 86.1289 4.79688C85.0352 5.31771 84.1042 6.03385 83.3359 6.94531C82.5807 7.84375 81.9948 8.89844 81.5781 10.1094C81.1745 11.3203 80.9727 12.6159 80.9727 13.9961C80.9727 15.3763 81.1745 16.6784 81.5781 17.9023C81.9948 19.1133 82.5807 20.1745 83.3359 21.0859C84.1042 21.9844 85.0352 22.694 86.1289 23.2148C87.2357 23.7357 88.4792 23.9961 89.8594 23.9961H103.883V16.0078H86.9297V12.0039H107.887V28Z" fill="white"/>
</svg>
