<svg width="51" height="50" viewBox="0 0 51 50" fill="none" xmlns="http://www.w3.org/2000/svg">
<g clip-path="url(#clip0_27_102)">
<path d="M25.5726 0C11.8128 0 0.658081 11.1547 0.658081 24.9145C0.658081 38.6743 11.8128 49.829 25.5726 49.829C39.3324 49.829 50.4871 38.6743 50.4871 24.9145C50.4871 11.1547 39.3324 0 25.5726 0ZM39.5875 11.5797L34.0091 37.7775C33.9045 38.2918 33.3185 38.5439 32.8733 38.265L24.2948 32.5755L19.7825 36.7746C19.3808 37.1181 18.7589 36.9509 18.5841 36.4517L15.6461 27.1856L7.75674 23.95C7.15146 23.6741 7.16005 22.7101 7.78048 22.4691L38.578 10.7288C39.1328 10.5136 39.7057 10.9966 39.5875 11.5797Z" fill="white"/>
<path d="M19.5319 33.7039L20.0331 28.9404L33.9464 15.3403L17.1501 26.3708L19.5319 33.7039Z" fill="white"/>
</g>
<defs>
<clipPath id="clip0_27_102">
<rect width="49.829" height="49.829" fill="white" transform="translate(0.658081)"/>
</clipPath>
</defs>
</svg>
