<svg width="51" height="50" viewBox="0 0 51 50" fill="none" xmlns="http://www.w3.org/2000/svg">
<g clip-path="url(#clip0_27_107)">
<path d="M25.4016 0C11.6418 0 0.487061 11.1547 0.487061 24.9145C0.487061 38.6743 11.6418 49.829 25.4016 49.829C39.1613 49.829 50.3161 38.6743 50.3161 24.9145C50.3161 11.1547 39.1613 0 25.4016 0ZM24.5588 12.9822C24.7427 12.9787 24.9352 13.007 25.1004 13.0065C25.1676 13.0059 25.2298 13.0009 25.2839 12.9873C31.2336 13.2035 36.4255 18.6121 36.3173 24.5619C36.3173 25.1025 36.5336 25.9679 35.6681 25.9679C34.8026 25.9679 35.0189 25.1025 35.0189 24.4537C34.9244 23.6696 34.7955 22.9375 34.6313 22.2554C34.4671 21.5733 34.2666 20.9408 34.0286 20.3552C33.6709 19.4766 33.2283 18.7036 32.6922 18.0271C31.085 15.997 28.6437 14.8334 25.1752 14.2857C24.6346 14.1776 23.8773 14.2857 23.8773 13.6365C23.8773 13.0747 24.2011 12.9817 24.5588 12.9822ZM32.7473 24.7781C31.7737 24.8862 31.9899 24.0207 31.8818 23.4801C31.2326 19.6938 29.9346 18.2878 26.0407 17.4223C25.4996 17.3142 24.6346 17.4223 24.7427 16.5568C24.8509 15.6913 25.7163 16.0162 26.257 16.1243C30.1514 16.5568 33.2884 19.802 33.2884 23.4801C33.1798 23.9126 33.5047 24.67 32.7473 24.7781ZM30.3676 22.8309C30.3676 23.2634 30.3676 23.8045 29.7184 23.9126C29.2859 23.9126 29.0691 23.5883 28.961 23.1553C28.8529 21.5329 27.9874 20.6674 26.3651 20.4507C25.9326 20.3426 25.3915 20.2345 25.6077 19.5852C25.7158 19.1527 26.1483 19.1527 26.5813 19.1527C28.4204 19.0451 30.3676 20.9923 30.3676 22.8309ZM36.425 34.7304C35.7757 36.5694 33.5041 38.408 31.5569 38.408C31.3407 38.2999 30.7996 38.2999 30.259 38.0837C21.8214 34.406 15.5473 28.4563 12.0859 19.8025C10.8961 16.9898 12.194 14.502 15.1148 13.5284C15.6554 13.3121 16.1966 13.3121 16.7372 13.5284C18.0351 13.9609 21.1722 18.3964 21.2803 19.6943C21.3884 20.7761 20.6311 21.3167 19.9823 21.7497C18.6844 22.6152 18.6844 23.805 19.225 24.9948C20.523 27.8075 22.6864 29.6461 25.391 30.9446C26.3646 31.3771 27.3382 31.3771 27.9869 30.2953C29.1767 28.4563 30.691 28.4563 32.3138 29.6461C33.0712 30.1867 33.9361 30.7278 34.6935 31.3771C35.7762 32.242 37.0742 32.9994 36.425 34.7304Z" fill="white"/>
</g>
<defs>
<clipPath id="clip0_27_107">
<rect width="49.829" height="49.829" fill="white" transform="translate(0.487061)"/>
</clipPath>
</defs>
</svg>
