<svg width="51" height="50" viewBox="0 0 51 50" fill="none" xmlns="http://www.w3.org/2000/svg">
<g clip-path="url(#clip0_27_98)">
<path d="M22.9163 28.5601L30.6318 24.4671L22.9163 20.457V28.5601Z" fill="white"/>
<path d="M25.7435 0C11.9837 0 0.828979 11.1547 0.828979 24.9145C0.828979 38.6743 11.9837 49.829 25.7435 49.829C39.5033 49.829 50.658 38.6743 50.658 24.9145C50.658 11.1547 39.5033 0 25.7435 0ZM39.6543 30.7172C39.3224 32.819 38.3063 33.9604 36.1697 34.2019C33.7819 34.4717 28.4132 34.596 26.0269 34.596C23.5578 34.596 18.564 34.4924 16.0711 34.2847C13.9284 34.1064 12.4662 32.9095 12.1717 30.7794C11.9574 29.2283 11.819 27.3846 11.819 24.4532C11.819 21.1899 11.9367 19.809 12.2131 18.3347C12.6077 16.2309 13.6121 15.2118 15.9049 14.9749C18.3109 14.7258 20.5855 14.6015 25.6743 14.6015C28.1621 14.6015 33.5257 14.7303 36.0035 14.9542C38.1674 15.1497 39.3866 16.4734 39.6538 18.5838C39.8403 20.0566 40.0065 22.165 40.0065 24.433C40.007 28.4148 39.6543 30.7172 39.6543 30.7172Z" fill="white"/>
</g>
<defs>
<clipPath id="clip0_27_98">
<rect width="49.829" height="49.829" fill="white" transform="translate(0.828979)"/>
</clipPath>
</defs>
</svg>
